<?xml version="1.0" encoding="utf-8"?>
<!-- Svg Vector Icons : http://www.onlinewebfonts.com/icon -->
<!DOCTYPE svg PUBLIC "-//W3C//DTD SVG 1.1//EN" "http://www.w3.org/Graphics/SVG/1.1/DTD/svg11.dtd">
<svg version="1.1" xmlns="http://www.w3.org/2000/svg" xmlns:xlink="http://www.w3.org/1999/xlink" x="0px" y="0px" viewBox="0 0 256 256" enable-background="new 0 0 256 256" xml:space="preserve">
<metadata> Svg Vector Icons : http://www.onlinewebfonts.com/icon </metadata>
<g><g><path fill="#000000" d="M218.8,39.7H37.2c-15,0-27.2,12.2-27.2,27.2v122.2c0,15,12.2,27.2,27.2,27.2h181.7c15,0,27.2-12.2,27.2-27.2V66.9C246,51.9,233.8,39.7,218.8,39.7z M235.7,189.1c0,9.3-7.6,16.9-16.9,16.9H37.2c-9.3,0-16.9-7.6-16.9-16.9V66.9c0-9.3,7.6-16.9,16.9-16.9h181.7c9.3,0,16.9,7.6,16.9,16.9V189.1z M156.9,105.8h37.7c2.8,0,5.1-2.3,5.1-5.1c0-2.8-2.3-5.1-5.1-5.1h-37.7c-2.8,0-5.1,2.3-5.1,5.1C151.7,103.6,154.1,105.8,156.9,105.8z M156.9,136.1h37.7c2.8,0,5.1-2.3,5.1-5.1c0-2.8-2.3-5.1-5.1-5.1h-37.7c-2.8,0-5.1,2.3-5.1,5.1C151.7,133.8,154.1,136.1,156.9,136.1z M212.7,156.1h-55.9c-2.8,0-5.1,2.3-5.1,5.1c0,2.8,2.3,5.1,5.1,5.1h55.9c2.8,0,5.1-2.3,5.1-5.1C217.9,158.4,215.6,156.1,212.7,156.1z M121.8,146.7c-6-6.5-13.7-11.2-22.3-13.6l-0.7-0.2l0.6-0.4c9.2-4.9,15-14.4,15-24.7c0-15.5-12.6-28.2-28.1-28.2c-15.5,0-28.2,12.6-28.2,28.2c0,10.3,5.7,19.8,15,24.7l0.6,0.4L73,133c-8.5,2.4-16.2,7.1-22.2,13.6c-6.1,6.6-10.3,14.7-12,23.5c-0.3,1.3,0,2.7,0.8,3.9c0.8,1.1,2,1.9,3.3,2.2c0.3,0.1,0.7,0.1,1,0.1c2.4,0,4.5-1.8,5-4.2c3.4-17.8,19.1-30.8,37.4-30.8c18.3,0,34,13,37.4,30.9c0.5,2.4,2.6,4.2,5,4.2c0.3,0,0.6,0,1-0.1c2.8-0.5,4.6-3.2,4.1-6C132.1,161.4,128,153.3,121.8,146.7z M86.3,89.9c9.8,0,17.9,8,17.9,17.9s-8,17.9-17.9,17.9s-17.9-8-17.9-17.9S76.5,89.9,86.3,89.9z"/></g></g>
</svg>